<svg xmlns="http://www.w3.org/2000/svg" width="460" height="368" viewBox="0 0 460 368" fill="none"><script xmlns="" src="chrome-extension://hoklmmgfnpapgjgcpechhaamimifchmp/frame_ant/frame_ant.js"/>
<rect width="460" height="368" rx="10" fill="#16181D"/>
<path d="M46.541 163.342C40.6758 163.342 37.0254 159.418 37.0254 153.143V153.115C37.0254 146.84 40.7031 142.93 46.541 142.93C52.3926 142.93 56.0566 146.854 56.0566 153.115V153.143C56.0566 159.418 52.4062 163.342 46.541 163.342ZM46.541 159.842C49.8223 159.842 51.8457 157.23 51.8457 153.143V153.115C51.8457 149 49.7812 146.43 46.541 146.43C43.3145 146.43 41.2363 148.986 41.2363 153.115V153.143C41.2363 157.271 43.3008 159.842 46.541 159.842ZM58.3809 167.785V148.344H62.373V150.9H62.4688C63.2617 149.123 64.8613 148.043 66.9395 148.043C70.6582 148.043 72.9277 150.887 72.9277 155.658V155.672C72.9277 160.43 70.6582 163.301 66.9941 163.301C64.9023 163.301 63.248 162.234 62.4551 160.498H62.373V167.785H58.3809ZM65.627 159.992C67.6094 159.992 68.8672 158.338 68.8672 155.672V155.658C68.8672 152.979 67.6094 151.352 65.627 151.352C63.6855 151.352 62.3594 153.02 62.3594 155.672V155.686C62.3594 158.324 63.6855 159.992 65.627 159.992ZM80.8301 163.301C77.5762 163.301 76.0449 162.043 76.0449 158.898V151.352H74.0078V148.344H76.0449V144.762H80.0781V148.344H82.7578V151.352H80.0781V158.461C80.0781 159.828 80.6934 160.293 81.8965 160.293C82.252 160.293 82.5117 160.252 82.7578 160.225V163.15C82.3066 163.219 81.6641 163.301 80.8301 163.301ZM87.0371 146.457C85.834 146.457 84.9043 145.514 84.9043 144.379C84.9043 143.244 85.834 142.301 87.0371 142.301C88.2402 142.301 89.1699 143.244 89.1699 144.379C89.1699 145.514 88.2402 146.457 87.0371 146.457ZM85.041 163V148.344H89.0332V163H85.041ZM91.7129 163V148.344H95.7051V150.805H95.7871C96.3887 149.137 97.9199 148.043 99.8887 148.043C101.939 148.043 103.43 149.137 103.922 151.064H104.004C104.66 149.219 106.41 148.043 108.557 148.043C111.428 148.043 113.355 150.025 113.355 152.979V163H109.363V153.977C109.363 152.281 108.516 151.352 106.971 151.352C105.453 151.352 104.455 152.459 104.455 154.086V163H100.613V153.854C100.613 152.281 99.7246 151.352 98.248 151.352C96.7305 151.352 95.7051 152.5 95.7051 154.154V163H91.7129ZM117.963 146.457C116.76 146.457 115.83 145.514 115.83 144.379C115.83 143.244 116.76 142.301 117.963 142.301C119.166 142.301 120.096 143.244 120.096 144.379C120.096 145.514 119.166 146.457 117.963 146.457ZM115.967 163V148.344H119.959V163H115.967ZM122.365 163V160.73L129.734 151.42V151.352H122.475V148.344H134.301V150.873L127.369 159.91V159.992H134.465V163H122.365ZM143.201 163.301C138.717 163.301 135.996 160.389 135.996 155.699V155.686C135.996 151.023 138.744 148.043 143.037 148.043C147.33 148.043 150.023 150.955 150.023 155.385V156.615H139.934C139.975 158.953 141.246 160.32 143.283 160.32C144.924 160.32 145.922 159.418 146.209 158.598L146.236 158.516H149.9L149.859 158.666C149.408 160.826 147.385 163.301 143.201 163.301ZM143.105 151.023C141.465 151.023 140.234 152.117 139.975 154.1H146.195C145.949 152.076 144.76 151.023 143.105 151.023ZM157.516 163.301C153.824 163.301 151.555 160.43 151.555 155.672V155.658C151.555 150.887 153.824 148.043 157.516 148.043C159.594 148.043 161.234 149.109 162.027 150.887H162.109V143.271H166.102V163H162.109V160.498H162.027C161.248 162.234 159.635 163.301 157.516 163.301ZM158.855 159.992C160.797 159.992 162.123 158.324 162.123 155.672V155.658C162.123 153.02 160.783 151.352 158.855 151.352C156.873 151.352 155.615 152.979 155.615 155.658V155.672C155.615 158.338 156.859 159.992 158.855 159.992ZM181.865 163.342C177.176 163.342 174.154 161.195 173.922 157.559L173.908 157.34H177.805L177.832 157.49C178.092 159.021 179.719 159.979 181.975 159.979C184.258 159.979 185.693 158.98 185.693 157.477V157.463C185.693 156.123 184.723 155.453 182.275 154.947L180.197 154.537C176.301 153.758 174.332 151.898 174.332 148.932V148.918C174.332 145.309 177.477 142.93 181.852 142.93C186.418 142.93 189.221 145.213 189.412 148.672L189.426 148.932H185.529L185.516 148.768C185.311 147.223 183.889 146.279 181.852 146.279C179.732 146.293 178.461 147.264 178.461 148.672V148.686C178.461 149.93 179.473 150.654 181.742 151.105L183.834 151.529C187.963 152.35 189.822 154.031 189.822 157.135V157.148C189.822 160.936 186.842 163.342 181.865 163.342ZM192.352 163V143.271H205.422V146.676H196.48V151.406H204.916V154.633H196.48V159.596H205.422V163H192.352ZM217.303 163.342C211.438 163.342 207.787 159.418 207.787 153.143V153.115C207.787 146.84 211.465 142.93 217.303 142.93C223.154 142.93 226.818 146.854 226.818 153.115V153.143C226.818 159.418 223.168 163.342 217.303 163.342ZM217.303 159.842C220.584 159.842 222.607 157.23 222.607 153.143V153.115C222.607 149 220.543 146.43 217.303 146.43C214.076 146.43 211.998 148.986 211.998 153.115V153.143C211.998 157.271 214.062 159.842 217.303 159.842ZM43.8066 195.355C39.623 195.355 36.9297 193.182 36.9297 189.846V189.832C36.9297 187.631 38.0918 185.908 40.6895 184.5L41.4141 184.104C39.6504 182.094 39.0215 180.945 39.0215 179.619V179.605C39.0215 176.953 41.3867 175.012 44.6406 175.012C47.8398 175.012 50.1094 176.857 50.1094 179.523V179.537C50.1094 181.506 48.8926 183.133 46.0488 184.678L49.8496 188.656C50.3281 187.535 50.5742 186.195 50.5742 184.555V183.926H53.8965V184.719C53.8965 187.316 53.3086 189.436 52.2012 191.131L55.8379 194.932V195H51.4355L50.0137 193.455C48.3867 194.658 46.3086 195.355 43.8066 195.355ZM42.4395 179.783C42.4395 180.686 42.9863 181.41 44.2715 182.805C46.0078 181.861 46.7871 180.959 46.7871 179.783V179.77C46.7871 178.525 45.8984 177.664 44.627 177.664C43.3691 177.664 42.4395 178.553 42.4395 179.77V179.783ZM40.6621 189.518C40.6621 191.295 42.0977 192.457 44.2168 192.457C45.6797 192.457 46.9512 191.965 47.9355 191.199L43.3281 186.195L42.8906 186.441C41.2773 187.371 40.6621 188.328 40.6621 189.504V189.518ZM62.8516 195V175.271H66.9805V183.283H75.8672V175.271H79.9961V195H75.8672V186.688H66.9805V195H62.8516ZM85.0137 178.457C83.8105 178.457 82.8809 177.514 82.8809 176.379C82.8809 175.244 83.8105 174.301 85.0137 174.301C86.2168 174.301 87.1465 175.244 87.1465 176.379C87.1465 177.514 86.2168 178.457 85.0137 178.457ZM83.0176 195V180.344H87.0098V195H83.0176ZM96.5391 200.086C92.5059 200.086 89.9629 198.268 89.5801 195.916L89.5664 195.793H93.4492L93.4902 195.889C93.8047 196.613 94.8711 197.242 96.5391 197.242C98.6035 197.242 99.6973 196.176 99.6973 194.535V192.293H99.6152C98.8496 193.824 97.209 194.795 95.0898 194.795C91.4258 194.795 89.1562 192.061 89.1562 187.508V187.494C89.1562 182.818 91.4531 180.043 95.1582 180.043C97.2227 180.043 98.8223 181.137 99.6152 182.846H99.6973V180.344H103.689V194.59C103.689 197.857 100.941 200.086 96.5391 200.086ZM96.4707 191.869C98.4258 191.869 99.7109 190.229 99.7109 187.604V187.59C99.7109 184.979 98.4121 183.352 96.4707 183.352C94.4883 183.352 93.2168 184.965 93.2168 187.59V187.604C93.2168 190.242 94.4746 191.869 96.4707 191.869ZM106.41 195V175.271H110.402V182.873H110.484C111.236 181.055 112.781 180.043 114.982 180.043C118.154 180.043 120.123 182.258 120.123 185.799V195H116.131V186.619C116.131 184.568 115.119 183.352 113.301 183.352C111.537 183.352 110.402 184.691 110.402 186.605V195H106.41ZM128.586 195V175.271H136.516C140.672 175.271 143.447 177.951 143.447 182.012V182.039C143.447 186.1 140.672 188.779 136.516 188.779H132.715V195H128.586ZM135.504 178.539H132.715V185.553H135.504C137.869 185.553 139.264 184.295 139.264 182.053V182.025C139.264 179.783 137.869 178.539 135.504 178.539ZM151.732 195.301C147.248 195.301 144.527 192.389 144.527 187.699V187.686C144.527 183.023 147.275 180.043 151.568 180.043C155.861 180.043 158.555 182.955 158.555 187.385V188.615H148.465C148.506 190.953 149.777 192.32 151.814 192.32C153.455 192.32 154.453 191.418 154.74 190.598L154.768 190.516H158.432L158.391 190.666C157.939 192.826 155.916 195.301 151.732 195.301ZM151.637 183.023C149.996 183.023 148.766 184.117 148.506 186.1H154.727C154.48 184.076 153.291 183.023 151.637 183.023ZM160.619 195V180.344H164.611V182.9H164.693C165.131 181.096 166.32 180.043 168.029 180.043C168.467 180.043 168.877 180.111 169.178 180.193V183.707C168.85 183.57 168.303 183.488 167.729 183.488C165.76 183.488 164.611 184.664 164.611 186.797V195H160.619ZM171.967 195V183.352H169.971V180.344H171.967V179.168C171.967 176.297 173.334 174.971 176.793 174.971C177.531 174.971 178.338 175.039 178.803 175.135V177.773C178.529 177.719 178.146 177.705 177.777 177.705C176.451 177.705 175.863 178.266 175.863 179.318V180.344H178.775V183.352H175.959V195H171.967ZM186.568 195.301C182.111 195.301 179.309 192.443 179.309 187.672V187.645C179.309 182.928 182.18 180.043 186.555 180.043C190.943 180.043 193.828 182.9 193.828 187.645V187.672C193.828 192.457 190.998 195.301 186.568 195.301ZM186.582 192.17C188.523 192.17 189.768 190.529 189.768 187.672V187.645C189.768 184.814 188.496 183.174 186.555 183.174C184.627 183.174 183.369 184.814 183.369 187.645V187.672C183.369 190.543 184.613 192.17 186.582 192.17ZM195.893 195V180.344H199.885V182.9H199.967C200.404 181.096 201.594 180.043 203.303 180.043C203.74 180.043 204.15 180.111 204.451 180.193V183.707C204.123 183.57 203.576 183.488 203.002 183.488C201.033 183.488 199.885 184.664 199.885 186.797V195H195.893ZM206.092 195V180.344H210.084V182.805H210.166C210.768 181.137 212.299 180.043 214.268 180.043C216.318 180.043 217.809 181.137 218.301 183.064H218.383C219.039 181.219 220.789 180.043 222.936 180.043C225.807 180.043 227.734 182.025 227.734 184.979V195H223.742V185.977C223.742 184.281 222.895 183.352 221.35 183.352C219.832 183.352 218.834 184.459 218.834 186.086V195H214.992V185.854C214.992 184.281 214.104 183.352 212.627 183.352C211.109 183.352 210.084 184.5 210.084 186.154V195H206.092ZM234.625 195.232C231.686 195.232 229.703 193.387 229.703 190.803V190.775C229.703 188.109 231.768 186.551 235.404 186.318L239.027 186.1V185.197C239.027 183.898 238.18 183.092 236.621 183.092C235.131 183.092 234.229 183.789 234.037 184.732L234.01 184.855H230.359L230.373 184.691C230.592 181.984 232.916 180.043 236.785 180.043C240.572 180.043 243.02 181.998 243.02 184.951V195H239.027V192.812H238.945C238.111 194.316 236.553 195.232 234.625 195.232ZM233.654 190.598C233.654 191.678 234.543 192.32 235.924 192.32C237.715 192.32 239.027 191.172 239.027 189.641V188.588L236.006 188.779C234.461 188.875 233.654 189.531 233.654 190.57V190.598ZM245.604 195V180.344H249.596V182.75H249.678C250.43 181.068 251.934 180.043 254.148 180.043C257.375 180.043 259.207 182.107 259.207 185.539V195H255.215V186.359C255.215 184.445 254.312 183.352 252.521 183.352C250.73 183.352 249.596 184.664 249.596 186.578V195H245.604ZM268.436 195.301C263.965 195.301 261.203 192.389 261.203 187.658V187.645C261.203 182.955 264.006 180.043 268.395 180.043C272.373 180.043 274.902 182.49 275.053 185.662V185.758H271.348L271.32 185.635C271.074 184.24 270.104 183.174 268.449 183.174C266.494 183.174 265.264 184.855 265.264 187.658V187.672C265.264 190.543 266.494 192.17 268.463 192.17C270.062 192.17 271.061 191.186 271.334 189.709L271.348 189.586H275.066V189.668C274.875 192.867 272.346 195.301 268.436 195.301ZM283.666 195.301C279.182 195.301 276.461 192.389 276.461 187.699V187.686C276.461 183.023 279.209 180.043 283.502 180.043C287.795 180.043 290.488 182.955 290.488 187.385V188.615H280.398C280.439 190.953 281.711 192.32 283.748 192.32C285.389 192.32 286.387 191.418 286.674 190.598L286.701 190.516H290.365L290.324 190.666C289.873 192.826 287.85 195.301 283.666 195.301ZM283.57 183.023C281.93 183.023 280.699 184.117 280.439 186.1H286.66C286.414 184.076 285.225 183.023 283.57 183.023Z" fill="white"/>
<path d="M57.8203 84V74.1357H61.8945C64.1094 74.1357 65.4219 75.3115 65.4219 77.2939V77.3076C65.4219 78.6064 64.7314 79.6865 63.6377 80.1172L65.7158 84H63.3779L61.5391 80.4248H59.8848V84H57.8203ZM59.8848 78.8594H61.6689C62.6943 78.8594 63.3096 78.2783 63.3096 77.3076V77.2939C63.3096 76.3506 62.6602 75.749 61.6416 75.749H59.8848V78.8594ZM66.7891 84V74.1357H73.3242V75.8379H68.8535V78.2031H73.0713V79.8164H68.8535V82.2979H73.3242V84H66.7891ZM74.1855 84L77.6309 74.1357H80.0576L83.4961 84H81.3291L80.584 81.6074H77.0977L76.3525 84H74.1855ZM78.8203 76.0498L77.5762 80.0625H80.1055L78.8613 76.0498H78.8203ZM84.5078 84V74.1357H88.2744C91.2275 74.1357 92.9775 75.8926 92.9775 79.0166V79.0303C92.9775 82.1611 91.2344 84 88.2744 84H84.5078ZM86.5723 82.291H88.0283C89.874 82.291 90.8721 81.1699 90.8721 79.0371V79.0234C90.8721 76.9658 89.8398 75.8379 88.0283 75.8379H86.5723V82.291ZM96.5254 84V80.3154L93.0938 74.1357H95.3223L97.5371 78.3467H97.585L99.793 74.1357H102.028L98.5898 80.3154V84H96.5254ZM60.1787 101V92.8379H57.3281V91.1357H65.1006V92.8379H62.2432V101H60.1787ZM70.1455 101.171C67.2129 101.171 65.3877 99.209 65.3877 96.0713V96.0576C65.3877 92.9199 67.2266 90.9648 70.1455 90.9648C73.0713 90.9648 74.9033 92.9268 74.9033 96.0576V96.0713C74.9033 99.209 73.0781 101.171 70.1455 101.171ZM70.1455 99.4209C71.7861 99.4209 72.7979 98.1152 72.7979 96.0713V96.0576C72.7979 94 71.7656 92.7148 70.1455 92.7148C68.5322 92.7148 67.4932 93.9932 67.4932 96.0576V96.0713C67.4932 98.1357 68.5254 99.4209 70.1455 99.4209ZM83.1475 101.171C80.6182 101.171 79.0117 99.708 79.0117 97.5137V91.1357H81.0762V97.3291C81.0762 98.6074 81.8213 99.4209 83.1475 99.4209C84.4736 99.4209 85.2119 98.6074 85.2119 97.3291V91.1357H87.2764V97.5137C87.2764 99.7012 85.6904 101.171 83.1475 101.171ZM92.5264 101.171C90.1816 101.171 88.6709 100.098 88.5547 98.2793L88.5479 98.1699H90.4961L90.5098 98.2451C90.6396 99.0107 91.4531 99.4893 92.5811 99.4893C93.7227 99.4893 94.4404 98.9902 94.4404 98.2383V98.2314C94.4404 97.5615 93.9551 97.2266 92.7314 96.9736L91.6924 96.7686C89.7441 96.3789 88.7598 95.4492 88.7598 93.9658V93.959C88.7598 92.1543 90.332 90.9648 92.5195 90.9648C94.8027 90.9648 96.2041 92.1064 96.2998 93.8359L96.3066 93.9658H94.3584L94.3516 93.8838C94.249 93.1113 93.5381 92.6396 92.5195 92.6396C91.46 92.6465 90.8242 93.1318 90.8242 93.8359V93.8428C90.8242 94.4648 91.3301 94.8271 92.4648 95.0527L93.5107 95.2646C95.5752 95.6748 96.5049 96.5156 96.5049 98.0674V98.0742C96.5049 99.9678 95.0146 101.171 92.5264 101.171ZM97.7695 101V91.1357H104.305V92.8379H99.834V95.2031H104.052V96.8164H99.834V99.2979H104.305V101H97.7695ZM112.173 101.171C109.828 101.171 108.317 100.098 108.201 98.2793L108.194 98.1699H110.143L110.156 98.2451C110.286 99.0107 111.1 99.4893 112.228 99.4893C113.369 99.4893 114.087 98.9902 114.087 98.2383V98.2314C114.087 97.5615 113.602 97.2266 112.378 96.9736L111.339 96.7686C109.391 96.3789 108.406 95.4492 108.406 93.9658V93.959C108.406 92.1543 109.979 90.9648 112.166 90.9648C114.449 90.9648 115.851 92.1064 115.946 93.8359L115.953 93.9658H114.005L113.998 93.8838C113.896 93.1113 113.185 92.6396 112.166 92.6396C111.106 92.6465 110.471 93.1318 110.471 93.8359V93.8428C110.471 94.4648 110.977 94.8271 112.111 95.0527L113.157 95.2646C115.222 95.6748 116.151 96.5156 116.151 98.0674V98.0742C116.151 99.9678 114.661 101.171 112.173 101.171ZM117.416 101V91.1357H123.951V92.8379H119.48V95.2031H123.698V96.8164H119.48V99.2979H123.951V101H117.416ZM129.83 101.171C126.945 101.171 125.134 99.2432 125.134 96.0645V96.0576C125.134 92.8789 126.952 90.9648 129.83 90.9648C132.223 90.9648 133.938 92.4756 134.13 94.5674L134.137 94.6289H132.127L132.1 94.5127C131.867 93.4258 131.061 92.7148 129.83 92.7148C128.251 92.7148 127.239 93.9863 127.239 96.0508V96.0576C127.239 98.1357 128.251 99.4209 129.83 99.4209C131.02 99.4209 131.854 98.7373 132.12 97.5684L132.134 97.5H134.144L134.137 97.5752C133.945 99.6738 132.216 101.171 129.83 101.171ZM137.466 101V92.8379H134.615V91.1357H142.388V92.8379H139.53V101H137.466ZM143.529 101V91.1357H145.594V101H143.529ZM151.685 101.171C148.752 101.171 146.927 99.209 146.927 96.0713V96.0576C146.927 92.9199 148.766 90.9648 151.685 90.9648C154.61 90.9648 156.442 92.9268 156.442 96.0576V96.0713C156.442 99.209 154.617 101.171 151.685 101.171ZM151.685 99.4209C153.325 99.4209 154.337 98.1152 154.337 96.0713V96.0576C154.337 94 153.305 92.7148 151.685 92.7148C150.071 92.7148 149.032 93.9932 149.032 96.0576V96.0713C149.032 98.1357 150.064 99.4209 151.685 99.4209ZM157.775 101V91.1357H159.58L164.037 97.5479H164.078V91.1357H166.136V101H164.345L159.874 94.54H159.833V101H157.775Z" fill="white"/>
<rect x="41" y="60" width="59" height="3" transform="rotate(90 41 60)" fill="url(#paint0_linear_5004_443)"/>
<g filter="url(#filter0_b_5004_443)">
<rect x="36" y="227" width="393" height="102" rx="10" fill="black" fill-opacity="0.21"/>
<rect x="36.5" y="227.5" width="392" height="101" rx="9.5" stroke="white" stroke-opacity="0.08"/>
</g>
<path d="M59.875 298L75.625 252.906H86.7188L102.438 298H92.5312L89.125 287.062H73.1875L69.7812 298H59.875ZM81.0625 261.656L75.375 280H86.9375L81.25 261.656H81.0625Z" fill="#8AF188"/>
<path d="M140.586 257V249.954H143.418C144.902 249.954 145.894 250.911 145.894 252.361V252.371C145.894 253.821 144.902 254.778 143.418 254.778H142.061V257H140.586ZM143.057 251.121H142.061V253.626H143.057C143.901 253.626 144.399 253.177 144.399 252.376V252.366C144.399 251.565 143.901 251.121 143.057 251.121ZM146.768 257V249.954H151.436V251.17H148.242V252.859H151.255V254.012H148.242V255.784H151.436V257H146.768ZM152.5 257V249.954H155.41C156.992 249.954 157.93 250.794 157.93 252.21V252.22C157.93 253.147 157.437 253.919 156.655 254.227L158.14 257H156.47L155.156 254.446H153.975V257H152.5ZM153.975 253.328H155.249C155.981 253.328 156.421 252.913 156.421 252.22V252.21C156.421 251.536 155.957 251.106 155.229 251.106H153.975V253.328ZM158.906 257V249.954H163.521V251.17H160.381V253.06H163.247V254.227H160.381V257H158.906ZM167.573 257.122C165.479 257.122 164.175 255.721 164.175 253.479V253.47C164.175 251.229 165.488 249.832 167.573 249.832C169.663 249.832 170.972 251.233 170.972 253.47V253.479C170.972 255.721 169.668 257.122 167.573 257.122ZM167.573 255.872C168.745 255.872 169.468 254.939 169.468 253.479V253.47C169.468 252 168.73 251.082 167.573 251.082C166.421 251.082 165.679 251.995 165.679 253.47V253.479C165.679 254.954 166.416 255.872 167.573 255.872ZM171.924 257V249.954H174.834C176.416 249.954 177.354 250.794 177.354 252.21V252.22C177.354 253.147 176.86 253.919 176.079 254.227L177.563 257H175.894L174.58 254.446H173.398V257H171.924ZM173.398 253.328H174.673C175.405 253.328 175.845 252.913 175.845 252.22V252.21C175.845 251.536 175.381 251.106 174.653 251.106H173.398V253.328ZM178.33 257V249.954H180.034L182.036 255.018H182.065L184.067 249.954H185.771V257H184.458V252.234H184.414L182.515 257H181.587L179.683 252.234H179.644V257H178.33ZM186.494 257L188.955 249.954H190.688L193.145 257H191.597L191.064 255.291H188.574L188.042 257H186.494ZM189.805 251.321L188.916 254.188H190.723L189.834 251.321H189.805ZM193.867 257V249.954H195.156L198.34 254.534H198.369V249.954H199.839V257H198.56L195.366 252.386H195.337V257H193.867ZM204.15 257.122C202.09 257.122 200.796 255.745 200.796 253.475V253.47C200.796 251.199 202.095 249.832 204.15 249.832C205.859 249.832 207.085 250.911 207.222 252.405L207.227 252.449H205.791L205.771 252.366C205.605 251.59 205.029 251.082 204.15 251.082C203.022 251.082 202.3 251.99 202.3 253.465V253.47C202.3 254.954 203.022 255.872 204.15 255.872C205 255.872 205.596 255.384 205.786 254.549L205.796 254.5H207.231L207.227 254.554C207.09 256.053 205.854 257.122 204.15 257.122ZM208.145 257V249.954H212.812V251.17H209.619V252.859H212.632V254.012H209.619V255.784H212.812V257H208.145Z" fill="white"/>
<path d="M301.159 257.122C299.484 257.122 298.405 256.355 298.322 255.057L298.317 254.979H299.709L299.719 255.032C299.812 255.579 300.393 255.921 301.198 255.921C302.014 255.921 302.526 255.564 302.526 255.027V255.022C302.526 254.544 302.18 254.305 301.306 254.124L300.563 253.978C299.172 253.699 298.469 253.035 298.469 251.976V251.971C298.469 250.682 299.592 249.832 301.154 249.832C302.785 249.832 303.786 250.647 303.854 251.883L303.859 251.976H302.468L302.463 251.917C302.39 251.365 301.882 251.028 301.154 251.028C300.397 251.033 299.943 251.38 299.943 251.883V251.888C299.943 252.332 300.305 252.591 301.115 252.752L301.862 252.903C303.337 253.196 304.001 253.797 304.001 254.905V254.91C304.001 256.263 302.937 257.122 301.159 257.122ZM306.394 257V251.17H304.357V249.954H309.909V251.17H307.868V257H306.394ZM310.725 257V249.954H313.635C315.217 249.954 316.154 250.794 316.154 252.21V252.22C316.154 253.147 315.661 253.919 314.88 254.227L316.364 257H314.694L313.381 254.446H312.199V257H310.725ZM312.199 253.328H313.474C314.206 253.328 314.646 252.913 314.646 252.22V252.21C314.646 251.536 314.182 251.106 313.454 251.106H312.199V253.328ZM320.085 257.122C318.278 257.122 317.131 256.077 317.131 254.51V249.954H318.605V254.378C318.605 255.291 319.138 255.872 320.085 255.872C321.032 255.872 321.56 255.291 321.56 254.378V249.954H323.034V254.51C323.034 256.072 321.901 257.122 320.085 257.122ZM327.346 257.122C325.285 257.122 323.991 255.745 323.991 253.475V253.47C323.991 251.199 325.29 249.832 327.346 249.832C329.055 249.832 330.28 250.911 330.417 252.405L330.422 252.449H328.986L328.967 252.366C328.801 251.59 328.225 251.082 327.346 251.082C326.218 251.082 325.495 251.99 325.495 253.465V253.47C325.495 254.954 326.218 255.872 327.346 255.872C328.195 255.872 328.791 255.384 328.981 254.549L328.991 254.5H330.427L330.422 254.554C330.285 256.053 329.05 257.122 327.346 257.122ZM332.8 257V251.17H330.764V249.954H336.315V251.17H334.274V257H332.8ZM340.085 257.122C338.278 257.122 337.131 256.077 337.131 254.51V249.954H338.605V254.378C338.605 255.291 339.138 255.872 340.085 255.872C341.032 255.872 341.56 255.291 341.56 254.378V249.954H343.034V254.51C343.034 256.072 341.901 257.122 340.085 257.122ZM344.211 257V249.954H347.121C348.703 249.954 349.641 250.794 349.641 252.21V252.22C349.641 253.147 349.147 253.919 348.366 254.227L349.851 257H348.181L346.867 254.446H345.686V257H344.211ZM345.686 253.328H346.96C347.692 253.328 348.132 252.913 348.132 252.22V252.21C348.132 251.536 347.668 251.106 346.94 251.106H345.686V253.328ZM350.617 257V249.954H355.285V251.17H352.092V252.859H355.104V254.012H352.092V255.784H355.285V257H350.617Z" fill="white"/>
<path d="M163.301 282.723V288.367L142.598 295.613V290.613L158.184 285.594L142.598 280.594V275.477L163.301 282.723ZM178.633 268.328C185.43 268.328 190.391 273.094 190.391 282.645V282.684C190.391 291.922 185.918 297.488 178.574 297.488C173.125 297.488 169.023 294.324 168.184 289.969L168.145 289.793H173.965L174.023 289.949C174.727 291.648 176.289 292.801 178.594 292.801C182.715 292.801 184.512 288.875 184.727 283.895C184.746 283.523 184.766 283.133 184.746 282.82H184.648C183.535 285.438 180.762 287.352 176.953 287.352C171.504 287.352 167.773 283.504 167.773 278.211V278.172C167.773 272.41 172.363 268.328 178.633 268.328ZM178.652 282.996C181.602 282.996 183.867 280.945 183.867 278.074V278.055C183.867 275.203 181.602 273.016 178.711 273.016C175.84 273.016 173.516 275.184 173.516 277.977V278.016C173.516 280.945 175.723 282.996 178.652 282.996ZM205.117 297.488C197.969 297.488 193.633 291.883 193.633 282.918V282.879C193.633 273.914 197.969 268.328 205.117 268.328C212.266 268.328 216.602 273.914 216.602 282.879V282.918C216.602 291.883 212.266 297.488 205.117 297.488ZM205.117 292.762C208.633 292.762 210.645 289.109 210.645 282.918V282.879C210.645 276.688 208.633 273.055 205.117 273.055C201.602 273.055 199.59 276.688 199.59 282.879V282.918C199.59 289.109 201.602 292.762 205.117 292.762ZM226.426 283.328C222.363 283.328 219.883 280.496 219.883 275.945V275.926C219.883 271.395 222.363 268.562 226.426 268.562C230.469 268.562 232.949 271.395 232.949 275.926V275.945C232.949 280.496 230.469 283.328 226.426 283.328ZM229.336 297H224.98L242.793 268.816H247.129L229.336 297ZM226.426 280.086C227.988 280.086 228.848 278.621 228.848 275.945V275.926C228.848 273.27 227.988 271.805 226.426 271.805C224.844 271.805 223.965 273.27 223.965 275.926V275.945C223.965 278.621 224.844 280.086 226.426 280.086ZM245.703 297.254C241.641 297.254 239.16 294.422 239.16 289.871V289.852C239.16 285.32 241.641 282.488 245.703 282.488C249.746 282.488 252.227 285.32 252.227 289.852V289.871C252.227 294.422 249.746 297.254 245.703 297.254ZM245.703 294.012C247.266 294.012 248.125 292.547 248.125 289.871V289.852C248.125 287.195 247.266 285.73 245.703 285.73C244.121 285.73 243.242 287.195 243.242 289.852V289.871C243.242 292.547 244.121 294.012 245.703 294.012Z" fill="#8AF188"/>
<path d="M301.652 279.285V273.621L320.266 283.484V287.898L301.652 297.43V291.746L314.465 285.73V285.535L301.652 279.285ZM336.945 297.625C330.109 297.625 325.52 294.246 325.52 289.363C325.52 285.652 328.215 282.781 332.141 282.137V282.02C328.859 281.258 326.652 278.738 326.652 275.633C326.652 271.336 330.91 268.191 336.945 268.191C343 268.191 347.219 271.316 347.219 275.652C347.219 278.719 345.031 281.238 341.75 282.02V282.137C345.695 282.801 348.371 285.672 348.371 289.383C348.371 294.266 343.723 297.625 336.945 297.625ZM336.945 293.328C340.051 293.328 342.199 291.473 342.199 288.934C342.199 286.395 340.051 284.539 336.945 284.539C333.84 284.539 331.672 286.395 331.672 288.934C331.672 291.473 333.84 293.328 336.945 293.328ZM336.945 280.242C339.543 280.242 341.398 278.602 341.398 276.355C341.398 274.09 339.543 272.449 336.945 272.449C334.328 272.449 332.492 274.109 332.492 276.355C332.492 278.602 334.328 280.242 336.945 280.242ZM362.902 297.625C355.812 297.625 351.496 291.98 351.496 282.859C351.496 273.758 355.852 268.172 362.902 268.172C369.953 268.172 374.289 273.738 374.289 282.84C374.289 291.941 369.992 297.625 362.902 297.625ZM362.902 292.898C366.262 292.898 368.293 289.285 368.293 282.859C368.293 276.492 366.242 272.898 362.902 272.898C359.582 272.898 357.492 276.512 357.492 282.859C357.492 289.266 359.543 292.898 362.902 292.898ZM389.66 275.574C389.66 280.066 387.18 282.879 383.234 282.879C379.309 282.879 376.809 280.066 376.809 275.574C376.809 271.102 379.309 268.27 383.234 268.27C387.18 268.27 389.66 271.102 389.66 275.574ZM383.234 279.422C384.504 279.422 385.285 277.977 385.285 275.555C385.285 273.133 384.504 271.668 383.234 271.668C381.965 271.668 381.184 273.133 381.184 275.555C381.184 277.977 381.965 279.422 383.234 279.422ZM384.328 297H379.602L390.539 282.02L400.168 268.816H404.875L394.25 283.387L384.328 297ZM407.668 290.086C407.668 294.578 405.188 297.41 401.242 297.41C397.316 297.41 394.816 294.578 394.816 290.086C394.816 285.613 397.316 282.781 401.242 282.781C405.188 282.781 407.668 285.613 407.668 290.086ZM401.242 293.934C402.512 293.934 403.293 292.488 403.293 290.066C403.293 287.645 402.512 286.18 401.242 286.18C399.973 286.18 399.191 287.645 399.191 290.066C399.191 292.488 399.973 293.934 401.242 293.934Z" fill="#8AF188"/>
<line opacity="0.2" x1="271.5" y1="242" x2="271.5" y2="310" stroke="white"/>
<line opacity="0.2" x1="122.5" y1="242" x2="122.5" y2="310" stroke="white"/>
<path d="M299.415 84.2631L299.415 107.602C331.623 107.602 357.763 133.742 357.763 165.95L381.102 165.95C381.102 120.847 344.518 84.2631 299.415 84.2631Z" fill="url(#paint1_linear_5004_443)"/>
<path d="M299.415 37.5847L299.415 60.924C357.413 60.924 404.441 107.952 404.441 165.95L427.781 165.95C427.78 95.0572 370.308 37.5847 299.415 37.5847Z" fill="url(#paint2_linear_5004_443)"/>
<path d="M326.931 142.809C324.133 145.179 319.944 144.833 317.574 142.035C315.203 139.237 315.55 135.048 318.348 132.677C321.145 130.307 364.83 102 364.83 102C364.83 102 329.729 140.439 326.931 142.809Z" fill="white"/>
<path d="M325.214 140.783C323.536 142.205 321.022 141.997 319.6 140.318C318.178 138.64 318.386 136.126 320.064 134.704C321.743 133.282 324.257 133.49 325.679 135.168C327.101 136.847 326.893 139.36 325.214 140.783Z" fill="#1A1A1A"/>
<defs>
<filter id="filter0_b_5004_443" x="20.8" y="211.8" width="423.4" height="132.4" filterUnits="userSpaceOnUse" color-interpolation-filters="sRGB">
<feFlood flood-opacity="0" result="BackgroundImageFix"/>
<feGaussianBlur in="BackgroundImageFix" stdDeviation="7.6"/>
<feComposite in2="SourceAlpha" operator="in" result="effect1_backgroundBlur_5004_443"/>
<feBlend mode="normal" in="SourceGraphic" in2="effect1_backgroundBlur_5004_443" result="shape"/>
</filter>
<linearGradient id="paint0_linear_5004_443" x1="41" y1="63" x2="100" y2="63" gradientUnits="userSpaceOnUse">
<stop stop-color="white"/>
<stop offset="1" stop-color="white" stop-opacity="0"/>
</linearGradient>
<linearGradient id="paint1_linear_5004_443" x1="338.407" y1="121" x2="379.802" y2="63.8672" gradientUnits="userSpaceOnUse">
<stop stop-color="#A8FF78"/>
<stop offset="1" stop-color="#78FFD6"/>
</linearGradient>
<linearGradient id="paint2_linear_5004_443" x1="338.407" y1="121" x2="379.802" y2="63.8672" gradientUnits="userSpaceOnUse">
<stop stop-color="#A8FF78"/>
<stop offset="1" stop-color="#78FFD6"/>
</linearGradient>
</defs>
</svg>