<svg xmlns="http://www.w3.org/2000/svg" width="460" height="368" viewBox="0 0 460 368" fill="none"><script xmlns="" src="chrome-extension://hoklmmgfnpapgjgcpechhaamimifchmp/frame_ant/frame_ant.js"/>
<rect width="460" height="368" rx="10" fill="white"/>
<path d="M44.377 291H35.6406V271.271H44.2266C47.9316 271.271 50.2559 273.172 50.2559 276.193C50.2559 278.354 48.6426 280.158 46.5508 280.473V280.582C49.2305 280.787 51.1992 282.742 51.1992 285.354C51.1992 288.826 48.5879 291 44.377 291ZM39.7695 274.348V279.475H42.7363C44.9375 279.475 46.1953 278.504 46.1953 276.836C46.1953 275.25 45.0879 274.348 43.1602 274.348H39.7695ZM39.7695 287.924H43.3242C45.7031 287.924 46.9883 286.912 46.9883 285.025C46.9883 283.18 45.6621 282.195 43.2285 282.195H39.7695V287.924ZM53.209 291V276.344H57.0645V278.982H57.1465C57.666 277.123 58.9102 276.111 60.6328 276.111C61.0977 276.111 61.4941 276.18 61.7676 276.262V279.775C61.4395 279.639 60.8926 279.543 60.3184 279.543C58.3496 279.543 57.2012 280.746 57.2012 282.811V291H53.209ZM63.4766 291V276.344H67.4688V291H63.4766ZM65.4727 274.73C64.2695 274.73 63.3398 273.814 63.3398 272.666C63.3398 271.504 64.2695 270.602 65.4727 270.602C66.6758 270.602 67.6055 271.504 67.6055 272.666C67.6055 273.814 66.6758 274.73 65.4727 274.73ZM70.1348 291V276.344H73.9902V278.955H74.0723C74.8516 277.137 76.3965 276.07 78.6523 276.07C81.9062 276.07 83.7383 278.121 83.7383 281.553V291H79.7461V282.387C79.7461 280.473 78.8438 279.379 77.0527 279.379C75.2617 279.379 74.127 280.691 74.127 282.592V291H70.1348ZM93.0352 287.883C95.0312 287.883 96.3027 286.297 96.3027 283.645C96.3027 281.006 95.0312 279.311 93.0352 279.311C91.0664 279.311 89.8223 280.979 89.8223 283.645C89.8223 286.324 91.0527 287.883 93.0352 287.883ZM92.9668 296.523C89.1113 296.523 86.5 294.65 86.1855 292.039H90.0957C90.4102 293.051 91.5586 293.748 93.0762 293.748C95.1406 293.748 96.2891 292.6 96.2891 290.904V288.334H96.207C95.5234 289.893 93.8008 290.959 91.6816 290.959C88.0996 290.959 85.7344 288.197 85.7344 283.617C85.7344 278.969 88.0312 276.111 91.75 276.111C93.8555 276.111 95.5098 277.219 96.2754 278.9H96.3438V276.344H100.281V290.795C100.281 294.295 97.3555 296.523 92.9668 296.523ZM102.646 280.65C102.646 277.861 105.066 276.029 108.826 276.029C112.504 276.029 114.896 277.889 114.951 280.732H111.273C111.191 279.557 110.248 278.832 108.771 278.832C107.391 278.832 106.488 279.461 106.488 280.404C106.488 281.129 107.117 281.621 108.402 281.922L111.205 282.523C114.145 283.18 115.334 284.342 115.334 286.529C115.334 289.414 112.682 291.314 108.812 291.314C104.902 291.314 102.496 289.428 102.277 286.57H106.174C106.365 287.801 107.336 288.512 108.922 288.512C110.439 288.512 111.355 287.91 111.355 286.953C111.355 286.215 110.863 285.805 109.551 285.49L106.844 284.889C104.068 284.26 102.646 282.811 102.646 280.65ZM123.947 272.967H127.939V276.344H130.646V279.352H127.939V286.365C127.939 287.486 128.486 288.02 129.662 288.02C130.018 288.02 130.387 287.992 130.633 287.951V290.891C130.223 290.986 129.539 291.055 128.732 291.055C125.287 291.055 123.947 289.906 123.947 287.049V279.352H121.883V276.344H123.947V272.967ZM132.93 291V271.271H136.854V278.955H136.936C137.715 277.109 139.314 276.07 141.543 276.07C144.797 276.07 146.656 278.176 146.656 281.566V291H142.664V282.414C142.664 280.527 141.734 279.379 139.916 279.379C138.029 279.379 136.922 280.705 136.922 282.633V291H132.93ZM155.789 278.982C154.039 278.982 152.781 280.309 152.645 282.141H158.865C158.783 280.268 157.566 278.982 155.789 278.982ZM158.92 286.516H162.584C162.146 289.387 159.521 291.314 155.898 291.314C151.387 291.314 148.68 288.43 148.68 283.74C148.68 279.064 151.414 276.029 155.748 276.029C160.014 276.029 162.707 278.914 162.707 283.371V284.588H152.604V284.834C152.604 286.926 153.93 288.361 155.967 288.361C157.43 288.361 158.551 287.637 158.92 286.516ZM170.418 291V271.271H174.41V291H170.418ZM182.764 288.348C184.5 288.348 185.936 287.213 185.936 285.627V284.561L182.846 284.752C181.355 284.861 180.508 285.531 180.508 286.57C180.508 287.664 181.41 288.348 182.764 288.348ZM181.451 291.232C178.662 291.232 176.543 289.428 176.543 286.789C176.543 284.123 178.594 282.578 182.244 282.359L185.936 282.141V281.17C185.936 279.803 184.979 279.01 183.475 279.01C181.984 279.01 181.041 279.748 180.85 280.828H177.199C177.35 277.984 179.77 276.029 183.652 276.029C187.412 276.029 189.859 277.971 189.859 280.924V291H186.004V288.758H185.922C185.102 290.316 183.283 291.232 181.451 291.232ZM193.51 272.967H197.502V276.344H200.209V279.352H197.502V286.365C197.502 287.486 198.049 288.02 199.225 288.02C199.58 288.02 199.949 287.992 200.195 287.951V290.891C199.785 290.986 199.102 291.055 198.295 291.055C194.85 291.055 193.51 289.906 193.51 287.049V279.352H191.445V276.344H193.51V272.967ZM208.754 278.982C207.004 278.982 205.746 280.309 205.609 282.141H211.83C211.748 280.268 210.531 278.982 208.754 278.982ZM211.885 286.516H215.549C215.111 289.387 212.486 291.314 208.863 291.314C204.352 291.314 201.645 288.43 201.645 283.74C201.645 279.064 204.379 276.029 208.713 276.029C212.979 276.029 215.672 278.914 215.672 283.371V284.588H205.568V284.834C205.568 286.926 206.895 288.361 208.932 288.361C210.395 288.361 211.516 287.637 211.885 286.516ZM217.49 280.65C217.49 277.861 219.91 276.029 223.67 276.029C227.348 276.029 229.74 277.889 229.795 280.732H226.117C226.035 279.557 225.092 278.832 223.615 278.832C222.234 278.832 221.332 279.461 221.332 280.404C221.332 281.129 221.961 281.621 223.246 281.922L226.049 282.523C228.988 283.18 230.178 284.342 230.178 286.529C230.178 289.414 227.525 291.314 223.656 291.314C219.746 291.314 217.34 289.428 217.121 286.57H221.018C221.209 287.801 222.18 288.512 223.766 288.512C225.283 288.512 226.199 287.91 226.199 286.953C226.199 286.215 225.707 285.805 224.395 285.49L221.688 284.889C218.912 284.26 217.49 282.811 217.49 280.65ZM233.24 272.967H237.232V276.344H239.939V279.352H237.232V286.365C237.232 287.486 237.779 288.02 238.955 288.02C239.311 288.02 239.68 287.992 239.926 287.951V290.891C239.516 290.986 238.832 291.055 238.025 291.055C234.58 291.055 233.24 289.906 233.24 287.049V279.352H231.176V276.344H233.24V272.967ZM268.24 276.344L264.357 291H260.105L257.453 280.637H257.371L254.732 291H250.535L246.639 276.344H250.658L252.873 287.213H252.955L255.553 276.344H259.381L261.992 287.213H262.074L264.303 276.344H268.24ZM276.156 278.982C274.406 278.982 273.148 280.309 273.012 282.141H279.232C279.15 280.268 277.934 278.982 276.156 278.982ZM279.287 286.516H282.951C282.514 289.387 279.889 291.314 276.266 291.314C271.754 291.314 269.047 288.43 269.047 283.74C269.047 279.064 271.781 276.029 276.115 276.029C280.381 276.029 283.074 278.914 283.074 283.371V284.588H272.971V284.834C272.971 286.926 274.297 288.361 276.334 288.361C277.797 288.361 278.918 287.637 279.287 286.516ZM293.848 291.232C291.701 291.232 290.061 290.193 289.254 288.484H289.172V291H285.234V271.271H289.227V278.887H289.309C290.115 277.15 291.742 276.111 293.834 276.111C297.525 276.111 299.795 278.941 299.795 283.672C299.795 288.389 297.539 291.232 293.848 291.232ZM292.467 279.311C290.539 279.311 289.213 281.047 289.213 283.672C289.213 286.324 290.525 288.02 292.467 288.02C294.463 288.02 295.707 286.352 295.707 283.672C295.707 281.006 294.449 279.311 292.467 279.311ZM36.3652 304.967H40.3574V308.344H43.0645V311.352H40.3574V318.365C40.3574 319.486 40.9043 320.02 42.0801 320.02C42.4355 320.02 42.8047 319.992 43.0508 319.951V322.891C42.6406 322.986 41.957 323.055 41.1504 323.055C37.7051 323.055 36.3652 321.906 36.3652 319.049V311.352H34.3008V308.344H36.3652V304.967ZM45.252 323V308.344H49.1074V310.982H49.1895C49.709 309.123 50.9531 308.111 52.6758 308.111C53.1406 308.111 53.5371 308.18 53.8105 308.262V311.775C53.4824 311.639 52.9355 311.543 52.3613 311.543C50.3926 311.543 49.2441 312.746 49.2441 314.811V323H45.252ZM61.5352 310.982C59.7852 310.982 58.5273 312.309 58.3906 314.141H64.6113C64.5293 312.268 63.3125 310.982 61.5352 310.982ZM64.666 318.516H68.3301C67.8926 321.387 65.2676 323.314 61.6445 323.314C57.1328 323.314 54.4258 320.43 54.4258 315.74C54.4258 311.064 57.1602 308.029 61.4941 308.029C65.7598 308.029 68.4531 310.914 68.4531 315.371V316.588H58.3496V316.834C58.3496 318.926 59.6758 320.361 61.7129 320.361C63.1758 320.361 64.2969 319.637 64.666 318.516ZM70.5176 323V308.344H74.373V310.955H74.4551C75.2344 309.137 76.7793 308.07 79.0352 308.07C82.2891 308.07 84.1211 310.121 84.1211 313.553V323H80.1289V314.387C80.1289 312.473 79.2266 311.379 77.4355 311.379C75.6445 311.379 74.5098 312.691 74.5098 314.592V323H70.5176ZM92.0918 323.232C88.4277 323.232 86.1172 320.334 86.1172 315.645C86.1172 310.996 88.4414 308.111 92.1191 308.111C94.2383 308.111 95.8789 309.232 96.5898 310.859H96.6719V303.271H100.664V323H96.7266V320.484H96.6582C95.9473 322.098 94.252 323.232 92.0918 323.232ZM93.4453 311.311C91.4355 311.311 90.2051 312.992 90.2051 315.672C90.2051 318.365 91.4355 320.02 93.4453 320.02C95.4277 320.02 96.6992 318.352 96.6992 315.672C96.6992 313.006 95.4277 311.311 93.4453 311.311ZM103.084 312.65C103.084 309.861 105.504 308.029 109.264 308.029C112.941 308.029 115.334 309.889 115.389 312.732H111.711C111.629 311.557 110.686 310.832 109.209 310.832C107.828 310.832 106.926 311.461 106.926 312.404C106.926 313.129 107.555 313.621 108.84 313.922L111.643 314.523C114.582 315.18 115.771 316.342 115.771 318.529C115.771 321.414 113.119 323.314 109.25 323.314C105.34 323.314 102.934 321.428 102.715 318.57H106.611C106.803 319.801 107.773 320.512 109.359 320.512C110.877 320.512 111.793 319.91 111.793 318.953C111.793 318.215 111.301 317.805 109.988 317.49L107.281 316.889C104.506 316.26 103.084 314.811 103.084 312.65ZM124.385 304.967H128.377V308.344H131.084V311.352H128.377V318.365C128.377 319.486 128.924 320.02 130.1 320.02C130.455 320.02 130.824 319.992 131.07 319.951V322.891C130.66 322.986 129.977 323.055 129.17 323.055C125.725 323.055 124.385 321.906 124.385 319.049V311.352H122.32V308.344H124.385V304.967ZM139.779 323.314C135.35 323.314 132.52 320.471 132.52 315.658C132.52 310.914 135.391 308.029 139.779 308.029C144.168 308.029 147.039 310.9 147.039 315.658C147.039 320.484 144.209 323.314 139.779 323.314ZM139.779 320.266C141.734 320.266 142.979 318.611 142.979 315.672C142.979 312.76 141.721 311.078 139.779 311.078C137.838 311.078 136.566 312.76 136.566 315.672C136.566 318.611 137.811 320.266 139.779 320.266ZM156.527 328.428C156.391 328.428 155.146 328.414 155.023 328.387V325.311C155.146 325.338 155.871 325.338 156.021 325.338C157.484 325.338 158.209 324.873 158.482 323.711C158.482 323.656 158.633 323.068 158.605 323.014L153.506 308.344H157.895L161.012 319.801H161.08L164.197 308.344H168.408L163.363 323.328C162.105 327.088 160.273 328.428 156.527 328.428ZM176.174 323.314C171.744 323.314 168.914 320.471 168.914 315.658C168.914 310.914 171.785 308.029 176.174 308.029C180.562 308.029 183.434 310.9 183.434 315.658C183.434 320.484 180.604 323.314 176.174 323.314ZM176.174 320.266C178.129 320.266 179.373 318.611 179.373 315.672C179.373 312.76 178.115 311.078 176.174 311.078C174.232 311.078 172.961 312.76 172.961 315.672C172.961 318.611 174.205 320.266 176.174 320.266ZM199.033 308.344V323H195.178V320.361H195.096C194.371 322.207 192.922 323.273 190.707 323.273C187.535 323.273 185.43 321.209 185.43 317.791V308.344H189.422V316.957C189.422 318.912 190.393 319.951 192.156 319.951C193.934 319.951 195.041 318.68 195.041 316.738V308.344H199.033ZM201.631 323V308.344H205.486V310.982H205.568C206.088 309.123 207.332 308.111 209.055 308.111C209.52 308.111 209.916 308.18 210.189 308.262V311.775C209.861 311.639 209.314 311.543 208.74 311.543C206.771 311.543 205.623 312.746 205.623 314.811V323H201.631ZM218.447 323V311.352H216.451V308.412H218.447V307.305C218.447 304.434 219.801 303.094 223.273 303.094C224.012 303.094 224.846 303.176 225.311 303.271V305.91C225.023 305.855 224.627 305.828 224.23 305.828C222.918 305.828 222.344 306.402 222.344 307.441V308.412H225.256V311.352H222.439V323H218.447ZM227.43 323V308.344H231.422V323H227.43ZM229.426 306.73C228.223 306.73 227.293 305.814 227.293 304.666C227.293 303.504 228.223 302.602 229.426 302.602C230.629 302.602 231.559 303.504 231.559 304.666C231.559 305.814 230.629 306.73 229.426 306.73ZM234.088 323V308.344H237.943V310.955H238.025C238.805 309.137 240.35 308.07 242.605 308.07C245.859 308.07 247.691 310.121 247.691 313.553V323H243.699V314.387C243.699 312.473 242.797 311.379 241.006 311.379C239.215 311.379 238.08 312.691 238.08 314.592V323H234.088ZM256.988 319.883C258.984 319.883 260.256 318.297 260.256 315.645C260.256 313.006 258.984 311.311 256.988 311.311C255.02 311.311 253.775 312.979 253.775 315.645C253.775 318.324 255.006 319.883 256.988 319.883ZM256.92 328.523C253.064 328.523 250.453 326.65 250.139 324.039H254.049C254.363 325.051 255.512 325.748 257.029 325.748C259.094 325.748 260.242 324.6 260.242 322.904V320.334H260.16C259.477 321.893 257.754 322.959 255.635 322.959C252.053 322.959 249.688 320.197 249.688 315.617C249.688 310.969 251.984 308.111 255.703 308.111C257.809 308.111 259.463 309.219 260.229 310.9H260.297V308.344H264.234V322.795C264.234 326.295 261.309 328.523 256.92 328.523ZM273.422 310.982C271.672 310.982 270.414 312.309 270.277 314.141H276.498C276.416 312.268 275.199 310.982 273.422 310.982ZM276.553 318.516H280.217C279.779 321.387 277.154 323.314 273.531 323.314C269.02 323.314 266.312 320.43 266.312 315.74C266.312 311.064 269.047 308.029 273.381 308.029C277.646 308.029 280.34 310.914 280.34 315.371V316.588H270.236V316.834C270.236 318.926 271.562 320.361 273.6 320.361C275.062 320.361 276.184 319.637 276.553 318.516ZM282.404 323V308.344H286.26V310.982H286.342C286.861 309.123 288.105 308.111 289.828 308.111C290.293 308.111 290.689 308.18 290.963 308.262V311.775C290.635 311.639 290.088 311.543 289.514 311.543C287.545 311.543 286.396 312.746 286.396 314.811V323H282.404ZM293.67 304.967H297.662V308.344H300.369V311.352H297.662V318.365C297.662 319.486 298.209 320.02 299.385 320.02C299.74 320.02 300.109 319.992 300.355 319.951V322.891C299.945 322.986 299.262 323.055 298.455 323.055C295.01 323.055 293.67 321.906 293.67 319.049V311.352H291.605V308.344H293.67V304.967ZM302.625 323V308.344H306.617V323H302.625ZM304.621 306.73C303.418 306.73 302.488 305.814 302.488 304.666C302.488 303.504 303.418 302.602 304.621 302.602C305.824 302.602 306.754 303.504 306.754 304.666C306.754 305.814 305.824 306.73 304.621 306.73ZM317.842 308.111C321.561 308.111 323.844 310.941 323.844 315.672C323.844 320.389 321.574 323.232 317.91 323.232C315.777 323.232 314.137 322.193 313.357 320.539H313.275V327.785H309.283V308.344H313.221V310.9H313.303C314.096 309.178 315.723 308.111 317.842 308.111ZM316.502 320.02C318.498 320.02 319.756 318.338 319.756 315.672C319.756 313.02 318.498 311.311 316.502 311.311C314.547 311.311 313.262 313.047 313.262 315.672C313.262 318.324 314.547 320.02 316.502 320.02ZM325.662 312.65C325.662 309.861 328.082 308.029 331.842 308.029C335.52 308.029 337.912 309.889 337.967 312.732H334.289C334.207 311.557 333.264 310.832 331.787 310.832C330.406 310.832 329.504 311.461 329.504 312.404C329.504 313.129 330.133 313.621 331.418 313.922L334.221 314.523C337.16 315.18 338.35 316.342 338.35 318.529C338.35 321.414 335.697 323.314 331.828 323.314C327.918 323.314 325.512 321.428 325.293 318.57H329.189C329.381 319.801 330.352 320.512 331.938 320.512C333.455 320.512 334.371 319.91 334.371 318.953C334.371 318.215 333.879 317.805 332.566 317.49L329.859 316.889C327.084 316.26 325.662 314.811 325.662 312.65ZM342.943 323.164C341.713 323.164 340.742 322.18 340.742 320.963C340.742 319.732 341.713 318.762 342.943 318.762C344.16 318.762 345.145 319.732 345.145 320.963C345.145 322.18 344.16 323.164 342.943 323.164Z" fill="black"/>
<path d="M36 173.68L115.008 127.939L115.008 42.0002L36 87.7416L36 173.68Z" fill="url(#paint0_linear_5015_444)"/>
<path fill-rule="evenodd" clip-rule="evenodd" d="M115.008 119.622L115.008 122.394L36 168.136L36 165.363L115.008 119.622ZM115.008 116.85L36 162.591L36 159.819L115.008 114.078L115.008 116.85ZM36 154.275L36 157.047L115.008 111.305L115.008 108.533L36 154.275ZM36 151.502L36 148.73L115.008 102.989L115.008 105.761L36 151.502ZM36 143.186L36 145.958L115.008 100.217L115.008 97.4443L36 143.186ZM36 140.413L36 137.641L115.008 91.8999L115.008 94.6721L36 140.413ZM36 132.097L36 134.869L115.008 89.1277L115.008 86.3555L36 132.097ZM36 129.325L36 126.552L115.008 80.8111L115.008 83.5833L36 129.325ZM36 121.008L36 123.78L115.008 78.0389L115.008 75.2667L36 121.008ZM36 118.236L36 115.464L115.008 69.7223L115.008 72.4945L36 118.236ZM36 109.919L36 112.691L115.008 66.9501L115.008 64.1779L36 109.919ZM36 107.147L36 104.375L115.008 58.6335L115.008 61.4057L36 107.147ZM36 98.8304L36 101.603L115.008 55.8613L115.008 53.0891L36 98.8304ZM36 96.0582L36 93.286L115.008 47.5446L115.008 50.3168L36 96.0582ZM36 87.7416L36 90.5138L115.008 44.7724L115.008 42.0002L36 87.7416ZM115.008 127.939L115.008 125.166L36 170.908L36 173.68L115.008 127.939Z" fill="url(#paint1_linear_5015_444)"/>
<path d="M115.008 127.939L194.016 173.68L194.016 87.7415L115.008 42.0002L115.008 127.939Z" fill="url(#paint2_linear_5015_444)"/>
<path fill-rule="evenodd" clip-rule="evenodd" d="M194.016 165.363L194.016 168.135L115.008 122.394L115.008 119.622L194.016 165.363ZM194.016 162.591L115.008 116.85L115.008 114.078L194.016 159.819L194.016 162.591ZM115.008 108.533L115.008 111.305L194.016 157.047L194.016 154.274L115.008 108.533ZM115.008 105.761L115.008 102.989L194.016 148.73L194.016 151.502L115.008 105.761ZM115.008 97.4443L115.008 100.217L194.016 145.958L194.016 143.186L115.008 97.4443ZM115.008 94.6721L115.008 91.8999L194.016 137.641L194.016 140.413L115.008 94.6721ZM115.008 86.3555L115.008 89.1277L194.016 134.869L194.016 132.097L115.008 86.3555ZM115.008 83.5833L115.008 80.8111L194.016 126.552L194.016 129.325L115.008 83.5833ZM115.008 75.2667L115.008 78.0389L194.016 123.78L194.016 121.008L115.008 75.2667ZM115.008 72.4945L115.008 69.7223L194.016 115.464L194.016 118.236L115.008 72.4945ZM115.008 64.1779L115.008 66.9501L194.016 112.691L194.016 109.919L115.008 64.1779ZM115.008 61.4057L115.008 58.6335L194.016 104.375L194.016 107.147L115.008 61.4057ZM115.008 53.089L115.008 55.8613L194.016 101.603L194.016 98.8304L115.008 53.089ZM115.008 50.3168L115.008 47.5446L194.016 93.286L194.016 96.0582L115.008 50.3168ZM115.008 42.0002L115.008 44.7724L194.016 90.5138L194.016 87.7415L115.008 42.0002ZM194.016 173.68L194.016 170.908L115.008 125.166L115.008 127.939L194.016 173.68Z" fill="url(#paint3_linear_5015_444)"/>
<path d="M36 87.741L115.008 133.482L115.008 219.421L36 173.679L36 87.741Z" fill="url(#paint4_linear_5015_444)"/>
<path fill-rule="evenodd" clip-rule="evenodd" d="M115.008 141.799L115.008 139.027L36 93.2854L36 96.0576L115.008 141.799ZM115.008 144.571L36 98.8298L36 101.602L115.008 147.343L115.008 144.571ZM36 107.146L36 104.374L115.008 150.116L115.008 152.888L36 107.146ZM36 109.919L36 112.691L115.008 158.432L115.008 155.66L36 109.919ZM36 118.235L36 115.463L115.008 161.204L115.008 163.977L36 118.235ZM36 121.007L36 123.78L115.008 169.521L115.008 166.749L36 121.007ZM36 129.324L36 126.552L115.008 172.293L115.008 175.065L36 129.324ZM36 132.096L36 134.868L115.008 180.61L115.008 177.838L36 132.096ZM36 140.413L36 137.641L115.008 183.382L115.008 186.154L36 140.413ZM36 143.185L36 145.957L115.008 191.699L115.008 188.926L36 143.185ZM36 151.502L36 148.729L115.008 194.471L115.008 197.243L36 151.502ZM36 154.274L36 157.046L115.008 202.787L115.008 200.015L36 154.274ZM36 162.59L36 159.818L115.008 205.56L115.008 208.332L36 162.59ZM36 165.363L36 168.135L115.008 213.876L115.008 211.104L36 165.363ZM36 173.679L36 170.907L115.008 216.648L115.008 219.421L36 173.679ZM115.008 133.482L115.008 136.255L36 90.5132L36 87.741L115.008 133.482Z" fill="url(#paint5_linear_5015_444)"/>
<path d="M115.008 133.482L194.016 87.741L194.016 173.679L115.008 219.421L115.008 133.482Z" fill="url(#paint6_linear_5015_444)"/>
<path fill-rule="evenodd" clip-rule="evenodd" d="M194.016 96.0576L194.016 93.2854L115.008 139.027L115.008 141.799L194.016 96.0576ZM194.016 98.8298L115.008 144.571L115.008 147.343L194.016 101.602L194.016 98.8298ZM115.008 152.888L115.008 150.116L194.016 104.374L194.016 107.146L115.008 152.888ZM115.008 155.66L115.008 158.432L194.016 112.691L194.016 109.919L115.008 155.66ZM115.008 163.977L115.008 161.204L194.016 115.463L194.016 118.235L115.008 163.977ZM115.008 166.749L115.008 169.521L194.016 123.78L194.016 121.007L115.008 166.749ZM115.008 175.065L115.008 172.293L194.016 126.552L194.016 129.324L115.008 175.065ZM115.008 177.838L115.008 180.61L194.016 134.868L194.016 132.096L115.008 177.838ZM115.008 186.154L115.008 183.382L194.016 137.641L194.016 140.413L115.008 186.154ZM115.008 188.926L115.008 191.699L194.016 145.957L194.016 143.185L115.008 188.926ZM115.008 197.243L115.008 194.471L194.016 148.73L194.016 151.502L115.008 197.243ZM115.008 200.015L115.008 202.787L194.016 157.046L194.016 154.274L115.008 200.015ZM115.008 208.332L115.008 205.56L194.016 159.818L194.016 162.591L115.008 208.332ZM115.008 211.104L115.008 213.876L194.016 168.135L194.016 165.363L115.008 211.104ZM115.008 219.421L115.008 216.648L194.016 170.907L194.016 173.679L115.008 219.421ZM194.016 87.741L194.016 90.5132L115.008 136.255L115.008 133.482L194.016 87.741Z" fill="url(#paint7_linear_5015_444)"/>
<path d="M255.086 137V91.4531H254.852L240.477 101.375V90.75L255.047 80.6328H266.766V137H255.086ZM278.758 97.5859C278.758 86.9219 287.273 79.3828 299.578 79.3828C311.453 79.3828 319.617 86.2578 319.617 95.6719C319.617 102.703 314.93 107.977 308.719 114.148L294.969 127.391V127.625H320.398V137H279.422V129.07L300.672 108.602C306.375 102.898 308.133 100.047 308.133 96.1406C308.133 91.9219 304.422 88.5625 299.188 88.5625C293.719 88.5625 289.695 92.3906 289.695 97.5859V97.7812H278.758V97.5859ZM349.539 138.25C335.359 138.25 326.727 126.961 326.727 108.719C326.727 90.5156 335.438 79.3438 349.539 79.3438C363.641 79.3438 372.312 90.4766 372.312 108.68C372.312 126.883 363.719 138.25 349.539 138.25ZM349.539 128.797C356.258 128.797 360.32 121.57 360.32 108.719C360.32 95.9844 356.219 88.7969 349.539 88.7969C342.898 88.7969 338.719 96.0234 338.719 108.719C338.719 121.531 342.82 128.797 349.539 128.797Z" fill="black"/>
<path d="M242.885 152.136V158.309C242.885 159.573 243.63 160.4 244.956 160.4C246.275 160.4 247.021 159.573 247.021 158.309V152.136H249.085V158.514C249.085 160.688 247.479 162.171 244.956 162.171C242.427 162.171 240.82 160.688 240.82 158.514V152.136H242.885ZM257.11 160.291V162H250.732V152.136H252.797V160.291H257.11ZM261.485 162H259.421V153.838H256.57V152.136H264.343V153.838H261.485V162ZM267.549 162H265.484V152.136H267.549V162ZM279.635 162H277.796V155.342H277.741L275.062 161.904H273.763L271.083 155.342H271.028V162H269.189V152.136H271.582L274.385 159.129H274.439L277.242 152.136H279.635V162ZM287.735 162L286.983 159.607H283.518L282.766 162H280.646L284.071 152.136H286.498L289.93 162H287.735ZM285.227 154.022L283.962 158.062H286.539L285.274 154.022H285.227ZM294.024 162H291.96V153.838H289.109V152.136H296.882V153.838H294.024V162ZM304.559 160.291V162H298.023V152.136H304.559V153.838H300.088V156.217H304.306V157.803H300.088V160.291H304.559ZM240.451 176.19H242.44C242.536 177.004 243.384 177.537 244.478 177.537C245.578 177.537 246.33 177.011 246.33 176.286C246.33 175.644 245.858 175.288 244.669 175.021L243.384 174.741C241.565 174.352 240.67 173.429 240.67 171.986C240.67 170.168 242.242 168.965 244.443 168.965C246.74 168.965 248.183 170.147 248.217 171.932H246.282C246.214 171.098 245.482 170.592 244.45 170.592C243.432 170.592 242.748 171.077 242.748 171.809C242.748 172.417 243.227 172.759 244.361 173.019L245.558 173.271C247.533 173.695 248.395 174.543 248.395 176.047C248.395 177.961 246.843 179.171 244.396 179.171C242.023 179.171 240.513 178.043 240.451 176.19ZM256.201 177.291V179H249.666V169.136H256.201V170.838H251.73V173.217H255.948V174.803H251.73V177.291H256.201ZM262.053 179.171C259.182 179.171 257.384 177.25 257.384 174.064C257.384 170.886 259.195 168.965 262.053 168.965C264.425 168.965 266.229 170.469 266.387 172.677H264.377C264.186 171.467 263.256 170.674 262.053 170.674C260.494 170.674 259.489 171.979 259.489 174.058C259.489 176.163 260.48 177.462 262.06 177.462C263.283 177.462 264.165 176.744 264.384 175.575H266.394C266.161 177.776 264.473 179.171 262.053 179.171ZM271.78 179H269.716V170.838H266.865V169.136H274.638V170.838H271.78V179ZM277.844 179H275.779V169.136H277.844V179ZM283.935 168.965C286.854 168.965 288.692 170.927 288.692 174.071C288.692 177.209 286.854 179.171 283.935 179.171C281.009 179.171 279.177 177.209 279.177 174.071C279.177 170.927 281.009 168.965 283.935 168.965ZM283.935 170.688C282.321 170.688 281.282 172 281.282 174.071C281.282 176.136 282.314 177.441 283.935 177.441C285.548 177.441 286.58 176.136 286.58 174.071C286.58 172 285.548 170.688 283.935 170.688ZM292.001 179H290.025V169.136H291.748L296.355 175.562H296.41V169.136H298.386V179H296.677L292.062 172.54H292.001V179ZM299.664 176.19H301.653C301.749 177.004 302.597 177.537 303.69 177.537C304.791 177.537 305.543 177.011 305.543 176.286C305.543 175.644 305.071 175.288 303.882 175.021L302.597 174.741C300.778 174.352 299.883 173.429 299.883 171.986C299.883 170.168 301.455 168.965 303.656 168.965C305.953 168.965 307.396 170.147 307.43 171.932H305.495C305.427 171.098 304.695 170.592 303.663 170.592C302.645 170.592 301.961 171.077 301.961 171.809C301.961 172.417 302.439 172.759 303.574 173.019L304.771 173.271C306.746 173.695 307.607 174.543 307.607 176.047C307.607 177.961 306.056 179.171 303.608 179.171C301.236 179.171 299.726 178.043 299.664 176.19ZM316.016 179.171C313.145 179.171 311.347 177.25 311.347 174.064C311.347 170.886 313.158 168.965 316.016 168.965C318.388 168.965 320.192 170.469 320.35 172.677H318.34C318.148 171.467 317.219 170.674 316.016 170.674C314.457 170.674 313.452 171.979 313.452 174.058C313.452 176.163 314.443 177.462 316.022 177.462C317.246 177.462 318.128 176.744 318.347 175.575H320.356C320.124 177.776 318.436 179.171 316.016 179.171ZM326.085 168.965C329.004 168.965 330.843 170.927 330.843 174.071C330.843 177.209 329.004 179.171 326.085 179.171C323.159 179.171 321.327 177.209 321.327 174.071C321.327 170.927 323.159 168.965 326.085 168.965ZM326.085 170.688C324.472 170.688 323.433 172 323.433 174.071C323.433 176.136 324.465 177.441 326.085 177.441C327.698 177.441 328.73 176.136 328.73 174.071C328.73 172 327.698 170.688 326.085 170.688ZM338.554 177.291V179H332.176V169.136H334.24V177.291H338.554ZM346.155 177.291V179H339.777V169.136H341.842V177.291H346.155ZM353.914 177.291V179H347.379V169.136H353.914V170.838H349.443V173.217H353.661V174.803H349.443V177.291H353.914ZM359.766 179.171C356.895 179.171 355.097 177.25 355.097 174.064C355.097 170.886 356.908 168.965 359.766 168.965C362.138 168.965 363.942 170.469 364.1 172.677H362.09C361.898 171.467 360.969 170.674 359.766 170.674C358.207 170.674 357.202 171.979 357.202 174.058C357.202 176.163 358.193 177.462 359.772 177.462C360.996 177.462 361.878 176.744 362.097 175.575H364.106C363.874 177.776 362.186 179.171 359.766 179.171ZM369.493 179H367.429V170.838H364.578V169.136H372.351V170.838H369.493V179ZM375.557 179H373.492V169.136H375.557V179ZM381.647 168.965C384.566 168.965 386.405 170.927 386.405 174.071C386.405 177.209 384.566 179.171 381.647 179.171C378.722 179.171 376.89 177.209 376.89 174.071C376.89 170.927 378.722 168.965 381.647 168.965ZM381.647 170.688C380.034 170.688 378.995 172 378.995 174.071C378.995 176.136 380.027 177.441 381.647 177.441C383.261 177.441 384.293 176.136 384.293 174.071C384.293 172 383.261 170.688 381.647 170.688ZM389.714 179H387.738V169.136H389.461L394.068 175.562H394.123V169.136H396.099V179H394.39L389.775 172.54H389.714V179Z" fill="black"/>
<rect x="240" y="192" width="143" height="3" fill="url(#paint8_linear_5015_444)"/>
<path d="M393.344 74.0352V69.0547H401.449V61.5352H406.43V69.0547H414.555V74.0352H406.43V81.5352H401.449V74.0352H393.344Z" fill="black"/>
<defs>
<linearGradient id="paint0_linear_5015_444" x1="75.5039" y1="150.872" x2="38.2369" y2="86.324" gradientUnits="userSpaceOnUse">
<stop stop-color="#353535"/>
<stop offset="1" stop-color="white"/>
</linearGradient>
<linearGradient id="paint1_linear_5015_444" x1="101.84" y1="148.037" x2="29.8332" y2="77.3358" gradientUnits="userSpaceOnUse">
<stop stop-color="#181818"/>
<stop offset="1" stop-color="#181818" stop-opacity="0"/>
</linearGradient>
<linearGradient id="paint2_linear_5015_444" x1="121.938" y1="132.097" x2="164.986" y2="77.9426" gradientUnits="userSpaceOnUse">
<stop stop-color="#5F5C5B"/>
<stop offset="1" stop-color="white"/>
</linearGradient>
<linearGradient id="paint3_linear_5015_444" x1="116.394" y1="134.176" x2="186.016" y2="80.8101" gradientUnits="userSpaceOnUse">
<stop stop-color="#181818"/>
<stop offset="1" stop-color="#181818" stop-opacity="0"/>
</linearGradient>
<linearGradient id="paint4_linear_5015_444" x1="54.1504" y1="96.4513" x2="27.409" y2="203.795" gradientUnits="userSpaceOnUse">
<stop stop-color="white"/>
<stop offset="1" stop-color="#5F5F5F"/>
</linearGradient>
<linearGradient id="paint5_linear_5015_444" x1="55.2181" y1="100.722" x2="28.9104" y2="181.424" gradientUnits="userSpaceOnUse">
<stop stop-color="#282828"/>
<stop offset="1" stop-color="#181818"/>
</linearGradient>
<linearGradient id="paint6_linear_5015_444" x1="127.82" y1="131.684" x2="192.451" y2="145.618" gradientUnits="userSpaceOnUse">
<stop stop-color="white"/>
<stop offset="1" stop-color="#4E4E4E"/>
</linearGradient>
<linearGradient id="paint7_linear_5015_444" x1="123.549" y1="134.887" x2="210.511" y2="141.267" gradientUnits="userSpaceOnUse">
<stop stop-color="#1C1C1C"/>
<stop offset="1" stop-color="#181818"/>
</linearGradient>
<linearGradient id="paint8_linear_5015_444" x1="240" y1="195" x2="383" y2="195" gradientUnits="userSpaceOnUse">
<stop/>
<stop offset="1" stop-opacity="0"/>
</linearGradient>
</defs>
</svg>